<svg xmlns="http://www.w3.org/2000/svg" width="902" height="182" viewBox="0 0 902 182" fill="none">
<path d="M221.585 52.5509C229.68 60.3044 233.814 72.0209 233.814 87.3557V146.11C233.814 147.316 232.78 148.35 231.575 148.35H211.079C209.873 148.35 208.84 147.316 208.84 146.11V90.6294C208.84 81.3252 206.601 74.2608 202.295 69.6087C197.989 64.9565 191.616 62.5444 183.522 62.5444C174.393 62.5444 167.159 65.3012 161.82 70.8148C156.481 76.3284 153.897 84.2543 153.897 94.5923V146.11C153.897 147.316 152.864 148.35 151.658 148.35H131.335C130.129 148.35 129.096 147.316 129.096 146.11V49.1049C129.096 43.2466 136.157 40.1452 140.463 44.1081L152.864 55.6523C156.998 50.6556 162.165 47.0373 168.365 44.4528C174.565 41.8682 181.627 40.6621 189.55 40.6621C202.639 40.8344 213.49 44.625 221.585 52.5509Z" fill="white"/>
<path d="M281.523 142.664C272.739 138.012 265.85 131.465 261.027 123.194C256.032 114.924 253.621 105.447 253.621 94.9369C253.621 84.4266 256.032 75.1223 261.027 66.8519C266.022 58.5814 272.739 52.2063 281.351 47.5542C289.962 42.902 299.952 40.6621 311.147 40.6621C321.653 40.6621 330.782 42.7297 338.704 47.0373C345.938 51.0002 351.622 56.3415 355.583 63.4059C356.1 64.4397 355.756 65.818 354.722 66.335L339.221 75.2946C338.188 75.8115 336.982 75.6392 336.293 74.6054C333.365 70.4702 329.921 67.3687 325.959 65.3011C321.309 62.8889 316.314 61.6829 310.975 61.6829C301.674 61.6829 293.924 64.7843 287.896 70.8148C281.867 76.8453 278.767 84.9435 278.767 94.9369C278.767 105.103 281.867 113.029 287.896 119.059C293.924 125.09 301.674 128.191 311.147 128.191C316.659 128.191 321.653 126.985 326.131 124.573C330.093 122.333 333.537 119.231 336.465 115.268C337.154 114.407 338.36 114.062 339.393 114.579L354.722 123.539C355.756 124.228 356.1 125.434 355.583 126.64C351.45 133.705 345.938 139.218 338.532 143.181C330.609 147.489 321.481 149.729 311.147 149.729C300.124 149.729 290.307 147.316 281.523 142.664Z" fill="white"/>
<path d="M395.713 142.664C387.102 138.012 380.384 131.465 375.562 123.194C370.739 114.924 368.328 105.447 368.328 94.937C368.328 84.4266 370.739 75.1224 375.562 66.8519C380.384 58.5814 387.102 52.2063 395.713 47.5542C404.325 42.902 413.97 40.6621 424.821 40.6621C435.671 40.6621 445.489 42.902 454.1 47.5542C462.712 52.2063 469.429 58.5814 474.252 66.8519C479.074 75.1224 481.486 84.4266 481.486 94.937C481.486 105.447 479.074 114.752 474.252 123.194C469.429 131.465 462.712 138.012 454.1 142.664C445.489 147.317 435.671 149.556 424.821 149.556C413.97 149.729 404.325 147.317 395.713 142.664ZM447.383 119.231C453.412 113.201 456.339 105.103 456.339 95.1093C456.339 85.1158 453.412 77.19 447.383 70.9871C441.355 64.9566 433.777 61.8551 424.649 61.8551C415.52 61.8551 407.942 64.9566 402.086 70.9871C396.23 77.0177 393.302 85.1158 393.302 95.1093C393.302 105.103 396.23 113.029 402.086 119.231C407.942 125.262 415.52 128.363 424.649 128.363C433.949 128.363 441.527 125.262 447.383 119.231Z" fill="white"/>
<path d="M524.027 148.351C525.232 148.351 526.266 147.317 526.266 146.111V86.1501V84.5994C526.266 77.1904 528.505 72.0214 532.983 68.0585C537.461 64.0956 542.973 62.028 551.756 62.028C551.756 62.028 555.89 62.028 560.368 62.5449C561.746 62.7172 562.779 61.6833 562.779 60.3049V44.281C562.779 43.2472 561.918 42.2133 560.885 42.041C556.751 41.3518 551.756 40.835 547.278 40.835C532.122 40.835 521.96 44.6256 513.693 52.0345C505.426 59.6158 501.292 70.8153 501.292 85.9778V146.111C501.292 147.317 502.325 148.351 503.531 148.351H524.027Z" fill="white"/>
<path d="M102.228 67.0247C97.5772 58.7542 91.2046 52.2068 83.1096 47.727C75.0146 43.0749 65.714 40.835 55.38 40.835C44.8738 40.835 35.4009 43.0749 27.1337 47.727C18.6943 52.3791 12.3216 58.9265 7.49909 67.197C2.84878 75.4674 0.4375 84.7717 0.4375 95.1098C0.4375 105.62 2.84878 114.924 7.67132 123.367C12.4939 131.638 19.3832 138.185 28.3393 142.837C37.2955 147.489 47.4573 149.729 59.1692 149.729C68.2975 149.729 76.5647 148.351 83.7986 145.422C90.5157 142.837 96.0271 138.874 100.677 133.878C101.366 133.016 101.366 131.81 100.677 130.948L90.1712 118.887C89.31 118.026 87.9321 117.853 87.071 118.715C79.8372 125.435 70.7088 128.708 59.8581 128.708C50.7297 128.708 42.9792 126.469 36.951 121.816C30.7506 117.164 26.9615 110.961 25.5836 103.208H105.672C107.567 103.208 109.117 101.83 109.117 99.9342C109.289 98.2112 109.289 97.0051 109.289 95.799C109.117 84.7717 106.878 75.2951 102.228 67.0247ZM35.2287 67.7139C40.7402 63.0618 47.4573 60.6496 55.38 60.6496C63.475 60.6496 70.1921 63.0618 75.7036 67.8862C80.5261 72.0214 83.6263 77.3628 85.0042 83.7379H25.5836C27.1337 77.1905 30.2339 71.8492 35.2287 67.7139Z" fill="white"/>
<path d="M645.452 148.351H663.881C665.087 148.351 666.12 147.317 666.12 146.111V85.9781C666.12 70.8156 661.986 59.4438 653.719 52.0349C645.452 44.4536 631.329 40.3184 615.656 40.3184C605.666 40.3184 599.293 41.0076 592.404 42.0414C591.371 42.2137 590.51 43.2475 590.51 44.2813V60.133C590.51 61.5114 591.715 62.5452 593.093 62.3729C602.738 60.9945 624.267 58.41 634.601 67.3696C639.079 71.3326 641.318 77.0185 641.318 84.4274V85.9781H613.761C598.432 85.9781 587.237 88.9072 580.176 94.5932C573.114 100.451 569.497 108.033 569.497 117.682C569.497 123.712 571.047 129.226 574.32 134.05C577.592 138.875 582.242 142.665 588.098 145.422C594.126 148.179 601.016 149.557 608.939 149.557C618.928 149.557 633.396 145.767 642.869 136.118V145.939C643.213 147.317 644.246 148.351 645.452 148.351ZM641.318 119.232C636.668 126.469 623.751 131.638 614.45 131.638C608.077 131.638 603.083 130.26 599.466 127.675C595.849 125.09 594.126 121.472 594.126 116.992C594.126 107.516 601.36 102.864 615.656 102.864H641.318V119.232Z" fill="white"/>
<path d="M838.699 3.10083L822.164 65.1292C818.719 78.0517 826.47 91.4912 839.387 94.9372L901.219 111.478C902.942 104.758 899.841 97.694 893.641 94.5926L860.228 78.0517C851.444 73.9165 846.277 64.7845 847.138 55.308L849.721 18.6079C850.238 11.3713 845.588 4.82384 838.699 3.10083Z" fill="#F5BC18"/>
<path d="M856.266 65.129C858.505 69.092 862.122 72.021 866.083 73.3994C867.117 73.744 868.322 73.744 869.356 73.0548L886.407 63.2337C892.952 59.4431 895.191 50.8281 891.057 44.2806C887.096 38.0778 878.829 36.3548 872.628 40.1454L855.922 49.7942C854.888 50.3111 854.199 51.3449 854.027 52.5511C853.166 56.6863 853.855 61.1661 856.266 65.129Z" fill="#F5BC18"/>
<path d="M723.302 63.5786L785.306 80.1195C798.223 83.5655 811.658 75.812 815.102 62.8894L831.637 1.03336C824.92 -0.689652 817.858 2.41176 814.758 8.61459L798.223 42.041C794.09 50.8283 784.961 55.9974 775.489 55.1359L738.803 52.5513C731.569 52.2067 725.024 56.6865 723.302 63.5786Z" fill="#40C1EF"/>
<path d="M785.306 46.176C789.267 43.9361 792.195 40.3178 793.573 36.3549C793.917 35.3211 793.917 34.115 793.228 33.0811L783.411 16.0234C779.622 9.47592 771.01 7.23598 764.465 11.3712C758.265 15.3341 756.543 23.6046 760.332 29.8074L769.977 46.5206C770.494 47.5544 771.527 48.2436 772.733 48.4159C776.866 49.1051 781.344 48.416 785.306 46.176Z" fill="#40C1EF"/>
<path d="M783.928 178.503L800.462 116.475C803.907 103.553 796.157 90.1131 783.239 86.6671L721.407 70.1262C719.685 76.846 722.785 83.9103 728.986 87.0117L762.399 103.553C771.183 107.688 776.35 116.82 775.489 126.296L772.905 162.996C772.388 170.233 777.039 176.78 783.928 178.503Z" fill="#8FC640"/>
<path d="M766.36 116.475C764.121 112.512 760.504 109.583 756.543 108.205C755.51 107.86 754.304 107.86 753.271 108.549L736.219 118.371C729.675 122.161 727.436 130.776 731.569 137.324C735.531 143.527 743.798 145.25 749.998 141.459L766.705 131.81C767.738 131.293 768.427 130.259 768.599 129.053C769.461 124.918 768.772 120.438 766.36 116.475Z" fill="#8FC640"/>
<path d="M899.324 118.026L837.32 101.485C824.403 98.0387 810.968 105.792 807.524 118.715L790.989 180.571C797.706 182.294 804.768 179.192 807.868 172.99L824.403 139.563C828.536 130.776 837.665 125.607 847.137 126.468L883.823 129.053C891.057 129.397 897.602 124.918 899.324 118.026Z" fill="#F15A52"/>
<path d="M837.32 135.428C833.358 137.668 830.43 141.286 829.052 145.249C828.708 146.283 828.708 147.489 829.397 148.523L839.214 165.58C843.003 172.128 851.615 174.368 858.16 170.233C864.36 166.27 866.083 157.999 862.294 151.796L852.648 135.083C852.132 134.049 851.098 133.36 849.893 133.188C845.759 132.499 841.281 133.188 837.32 135.428Z" fill="#F15A52"/>
</svg>